<svg width="24" height="24" viewBox="0 0 24 24" fill="none" xmlns="http://www.w3.org/2000/svg">
<path d="M12 2.16217C15.2041 2.16217 15.5837 2.17441 16.849 2.23214C18.019 2.28549 18.6544 2.48098 19.0773 2.64532C19.6374 2.863 20.0371 3.12304 20.457 3.54293C20.877 3.96287 21.137 4.36261 21.3547 4.92274C21.519 5.34559 21.7145 5.98098 21.7679 7.15096C21.8256 8.41631 21.8378 8.79585 21.8378 11.9999C21.8378 15.2041 21.8256 15.5836 21.7679 16.849C21.7145 18.019 21.519 18.6544 21.3547 19.0772C21.137 19.6373 20.877 20.0371 20.4571 20.457C20.0371 20.8769 19.6374 21.1369 19.0773 21.3546C18.6544 21.519 18.019 21.7145 16.849 21.7678C15.5839 21.8255 15.2044 21.8378 12 21.8378C8.79563 21.8378 8.41618 21.8255 7.15097 21.7678C5.98098 21.7145 5.34559 21.519 4.92274 21.3546C4.36261 21.1369 3.96287 20.8769 3.54297 20.457C3.12308 20.0371 2.863 19.6373 2.64531 19.0772C2.48097 18.6544 2.28548 18.019 2.23213 16.849C2.1744 15.5836 2.16216 15.2041 2.16216 11.9999C2.16216 8.79585 2.1744 8.41631 2.23213 7.15096C2.28548 5.98098 2.48097 5.34559 2.64531 4.92274C2.863 4.36261 3.12303 3.96287 3.54297 3.54298C3.96287 3.12304 4.36261 2.863 4.92274 2.64532C5.34559 2.48098 5.98098 2.28549 7.15097 2.23214C8.41632 2.17441 8.79587 2.16217 12 2.16217ZM12 1.52588e-05C8.741 1.52588e-05 8.33234 0.0138291 7.05242 0.0722283C5.77516 0.130485 4.90283 0.333357 4.13954 0.629974C3.35044 0.936641 2.68123 1.34696 2.01406 2.01407C1.34695 2.68123 0.936629 3.35044 0.630008 4.13954C0.333343 4.90283 0.13047 5.77515 0.0722133 7.05241C0.0138139 8.33233 0 8.74098 0 11.9999C0 15.259 0.0138139 15.6676 0.0722133 16.9475C0.13047 18.2248 0.333343 19.0971 0.630008 19.8604C0.936629 20.6495 1.34695 21.3187 2.01406 21.9859C2.68123 22.653 3.35044 23.0633 4.13954 23.3699C4.90283 23.6666 5.77516 23.8695 7.05242 23.9277C8.33234 23.9861 8.741 23.9999 12 23.9999C15.259 23.9999 15.6677 23.9861 16.9476 23.9277C18.2248 23.8695 19.0972 23.6666 19.8605 23.3699C20.6496 23.0633 21.3188 22.653 21.9859 21.9859C22.653 21.3187 23.0634 20.6495 23.37 19.8604C23.6667 19.0971 23.8695 18.2248 23.9278 16.9475C23.9862 15.6676 24 15.259 24 11.9999C24 8.74098 23.9862 8.33233 23.9278 7.05241C23.8695 5.77515 23.6667 4.90283 23.37 4.13954C23.0634 3.35044 22.653 2.68123 21.9859 2.01407C21.3188 1.34696 20.6496 0.936641 19.8605 0.629974C19.0972 0.333357 18.2248 0.130485 16.9476 0.0722283C15.6677 0.0138291 15.259 1.52588e-05 12 1.52588e-05Z" fill="white"/>
<path d="M12.0057 5.84341C8.60238 5.84341 5.84351 8.60228 5.84351 12.0055C5.84351 15.4088 8.60238 18.1677 12.0057 18.1677C15.409 18.1677 18.1678 15.4088 18.1678 12.0055C18.1678 8.60228 15.409 5.84341 12.0057 5.84341ZM12.0057 16.0055C9.79651 16.0055 8.00566 14.2147 8.00566 12.0055C8.00566 9.79641 9.79651 8.00557 12.0057 8.00557C14.2148 8.00557 16.0057 9.79641 16.0057 12.0055C16.0057 14.2147 14.2148 16.0055 12.0057 16.0055Z" fill="white"/>
<path d="M19.8507 5.59615C19.8507 6.3914 19.206 7.03613 18.4107 7.03613C17.6154 7.03613 16.9707 6.3914 16.9707 5.59615C16.9707 4.80085 17.6154 4.15613 18.4107 4.15613C19.206 4.15613 19.8507 4.80085 19.8507 5.59615Z" fill="white"/>
</svg>
