<svg width="24" height="16" viewBox="0 0 24 16" fill="none" xmlns="http://www.w3.org/2000/svg">
<path fill-rule="evenodd" clip-rule="evenodd" d="M18.5314 0H16.9655H1.26199C0.565012 0 0 0.565012 0 1.26199V12.9046C0 14.2985 1.13002 15.4286 2.52398 15.4286H14.4415C15.8355 15.4286 16.9655 14.2985 16.9655 12.9046V11.2587H18.5314C21.5516 11.2587 24 8.8103 24 5.79006V5.46862C24 2.44839 21.5516 0 18.5314 0ZM16.9655 8.33977V2.91892H18.393C19.89 2.91892 21.1034 4.13242 21.1034 5.62934C21.1034 7.12627 19.89 8.33977 18.393 8.33977H16.9655ZM10.9149 3.42856C9.45676 3.42856 8.53275 3.99896 8.14286 5.13977C7.75296 3.99896 6.82895 3.42856 5.37084 3.42856C3.18366 3.42856 2.37282 6.14965 3.51928 7.92856C4.28358 9.1145 5.82478 10.6145 8.14286 12.4286C10.4609 10.6145 12.0021 9.1145 12.7664 7.92856C13.9129 6.14965 13.1021 3.42856 10.9149 3.42856Z" fill="white"/>
</svg>
