<svg width="25" height="25" viewBox="0 0 25 25" fill="none" xmlns="http://www.w3.org/2000/svg">
<path d="M17.6765 9.16347C19.2198 10.2706 21.1105 10.9221 23.1525 10.9221V6.97861C22.7661 6.97869 22.3806 6.93825 22.0025 6.85786V9.96193C19.9606 9.96193 18.0702 9.31049 16.5265 8.2034V16.2509C16.5265 20.2766 13.2745 23.5399 9.26333 23.5399C7.76666 23.5399 6.37556 23.0858 5.21997 22.3071C6.53888 23.6604 8.37821 24.5 10.4131 24.5C14.4245 24.5 17.6766 21.2367 17.6766 17.2108V9.16347H17.6765V9.16347ZM19.0951 5.18499C18.3064 4.32023 17.7885 3.20268 17.6765 1.96717V1.45996H16.5867C16.861 3.03028 17.7966 4.37187 19.0951 5.18499ZM7.75706 19.2178C7.31638 18.6379 7.07824 17.9286 7.07931 17.1992C7.07931 15.358 8.56672 13.8651 10.4018 13.8651C10.7438 13.865 11.0837 13.9176 11.4096 14.0214V9.98977C11.0287 9.93739 10.6443 9.91515 10.2601 9.9233V13.0613C9.93394 12.9575 9.59384 12.9048 9.25177 12.9051C7.41671 12.9051 5.92938 14.3979 5.92938 16.2393C5.92938 17.5414 6.67284 18.6687 7.75706 19.2178Z" fill="white"/>
<path d="M16.5265 8.20332C18.0702 9.31041 19.9607 9.96185 22.0025 9.96185V6.85778C20.8628 6.61414 19.8538 6.0164 19.0951 5.18499C17.7966 4.37179 16.861 3.0302 16.5867 1.45996H13.7241V17.2106C13.7176 19.0468 12.2327 20.5336 10.4016 20.5336C9.32257 20.5336 8.36394 20.0174 7.75682 19.2178C6.67269 18.6687 5.92923 17.5413 5.92923 16.2394C5.92923 14.3981 7.41655 12.9052 9.25161 12.9052C9.6032 12.9052 9.94208 12.9602 10.26 13.0614V9.92338C6.31921 10.0051 3.1499 13.2365 3.1499 17.2107C3.1499 19.1946 3.93913 20.9931 5.22006 22.3071C6.37565 23.0858 7.76675 23.54 9.26342 23.54C13.2747 23.54 16.5265 20.2765 16.5265 16.2509V8.20332H16.5265Z" fill="white"/>
<path d="M22.0025 6.8578V6.01848C20.9748 6.02005 19.9672 5.73119 19.0952 5.18493C19.8671 6.03306 20.8835 6.61787 22.0025 6.8578ZM16.5867 1.45998C16.5605 1.30991 16.5404 1.15885 16.5265 1.00721V0.5H12.574V16.2508C12.5677 18.0868 11.0829 19.5736 9.25164 19.5736C8.714 19.5736 8.20638 19.4455 7.75685 19.2179C8.36397 20.0174 9.32259 20.5336 10.4016 20.5336C12.2326 20.5336 13.7177 19.0469 13.7241 17.2107V1.45998H16.5867ZM10.2601 9.92341V9.02989C9.92988 8.98459 9.59691 8.96186 9.26353 8.96202C5.25192 8.96194 2 12.2254 2 16.2508C2 18.7745 3.27806 20.9987 5.22017 22.307C3.93924 20.993 3.15001 19.1944 3.15001 17.2106C3.15001 13.2365 6.31923 10.0051 10.2601 9.92341Z" fill="white"/>
</svg>
