<svg width="18" height="24" viewBox="0 0 18 24" fill="none" xmlns="http://www.w3.org/2000/svg">
<path d="M16.3174 21.7474C15.5679 22.468 14.0299 23.0033 12.5558 23.0282C12.5001 23.0292 12.4455 23.0297 12.3907 23.0297H12.3902C7.5415 23.0294 6.24783 19.3282 6.24783 17.1411V10.4204C6.24783 10.365 6.20289 10.32 6.14747 10.32H3.8029C3.74745 10.32 3.7025 10.2751 3.7025 10.2196V7.15808C3.7025 7.11712 3.72813 7.08065 3.76629 7.06579C6.27217 6.0903 7.67159 4.15202 8.0397 1.15403C8.0602 0.987469 8.19759 0.982934 8.19903 0.982934H11.3287C11.3842 0.982934 11.4291 1.02788 11.4291 1.0833V6.46416C11.4291 6.51958 11.4741 6.56453 11.5295 6.56453H15.4253C15.4808 6.56453 15.5257 6.60952 15.5257 6.66494V10.2196C15.5257 10.2751 15.4808 10.32 15.4253 10.32H11.5127C11.4573 10.32 11.4123 10.365 11.4123 10.4205L11.4124 16.8076C11.4355 18.2457 12.1315 18.9747 13.4812 18.9747C14.025 18.9747 14.6479 18.8482 15.2166 18.6309C15.2698 18.6106 15.3285 18.6377 15.3466 18.6916L16.3419 21.6419C16.3544 21.6791 16.3457 21.7203 16.3174 21.7474ZM11.7413 24C14.1428 24 16.5222 23.145 17.3094 22.1092L17.4671 21.9016L15.9785 17.4895C15.9647 17.4486 15.9264 17.4212 15.8834 17.4212H12.5578C12.5128 17.4212 12.4721 17.3925 12.4607 17.3489C12.422 17.2018 12.3988 17.0219 12.3952 16.7996V11.4034C12.3952 11.3479 12.4402 11.3029 12.4956 11.3029H16.4082C16.4637 11.3029 16.5086 11.258 16.5086 11.2025V5.68204C16.5086 5.62658 16.4637 5.58163 16.4082 5.58163H12.5124C12.457 5.58163 12.412 5.53669 12.412 5.48123V0.100406C12.412 0.0449855 12.3671 0 12.3116 0H5.47943C4.99086 0 4.42706 0.362355 4.34461 1.03404C4.0035 3.81164 2.72959 5.47798 0.335696 6.27803L0.0685846 6.36719C0.0276182 6.38087 0 6.41921 0 6.46243V11.2025C0 11.258 0.0449487 11.3029 0.100369 11.3029H2.5453V17.1411C2.5453 21.8016 5.77331 24 11.7413 24Z" fill="white"/>
</svg>
